
<svg width="90" height="90" viewBox="0 0 90 90" fill="none" xmlns="http://www.w3.org/2000/svg">
  <rect x="12" y="28" width="66" height="44" rx="10" fill="#ffe8d4" stroke="#eec0aa" stroke-width="3"/>
  <rect x="36" y="28" width="18" height="44" fill="#ffd1ee"/>
  <rect x="12" y="48" width="66" height="24" rx="8" fill="#b2e5e5" opacity="0.38"/>
  <rect x="36" y="48" width="18" height="24" fill="#f8b98b" opacity="0.55"/>
  <circle cx="28" cy="22" r="7" fill="#f8b98b" stroke="#f8b98b" stroke-width="1"/>
  <circle cx="62" cy="22" r="7" fill="#a6c6ed" stroke="#a6c6ed" stroke-width="1"/>
  <line x1="28" y1="22" x2="22" y2="9" stroke="#f8b98b" stroke-width="2.5" stroke-linecap="round"/>
  <line x1="62" y1="22" x2="68" y2="8" stroke="#a6c6ed" stroke-width="2.5" stroke-linecap="round"/>
  <rect x="28" y="38" width="34" height="20" rx="6" fill="#fff7e8" stroke="#f8b98b" stroke-width="2"/>
  <ellipse cx="45" cy="48" rx="12" ry="7" fill="#fff"/>
  <circle cx="41" cy="49" r="1.5" fill="#444"/>
  <circle cx="49" cy="49" r="1.5" fill="#444"/>
  <path d="M43 53 Q45 55, 47 53" stroke="#f8b98b" stroke-width="1.4" stroke-linecap="round" fill="none"/>
  <path d="M45 58 Q48 59, 51 56" stroke="#f38bb7" stroke-width="2" stroke-linecap="round" fill="none"/>
  <text x="20" y="80" font-size="13" font-family="Arial Rounded MT Bold, Arial, sans-serif" fill="#5b90b3">pulga</text>
  <text x="48" y="80" font-size="13" font-family="Arial Rounded MT Bold, Arial, sans-serif" fill="#f8b98b">store</text>
</svg>
